<svg id="visual" viewBox="0 0 1920 1080" width="1920" height="1080" xmlns="http://www.w3.org/2000/svg" xmlns:xlink="http://www.w3.org/1999/xlink" version="1.1">
  <rect x="0" y="0" width="1920" height="1080" fill="#000000"></rect>
  <defs>
    <linearGradient id="grad1_0" x1="43.8%" y1="0%" x2="100%" y2="100%">
      <stop offset="14.444444444444446%" stop-color="#282e3a" stop-opacity="1"></stop>
      <stop offset="85.55555555555554%" stop-color="#282e3a" stop-opacity="1"></stop>
    </linearGradient>
  </defs>
  <defs>
    <linearGradient id="grad1_1" x1="43.8%" y1="0%" x2="100%" y2="100%">
      <stop offset="14.444444444444446%" stop-color="#282e3a" stop-opacity="1"></stop>
      <stop offset="85.55555555555554%" stop-color="#21252e" stop-opacity="1"></stop>
    </linearGradient>
  </defs>
  <defs>
    <linearGradient id="grad1_2" x1="43.8%" y1="0%" x2="100%" y2="100%">
      <stop offset="14.444444444444446%" stop-color="#1b1d23" stop-opacity="1"></stop>
      <stop offset="85.55555555555554%" stop-color="#21252e" stop-opacity="1"></stop>
    </linearGradient>
  </defs>
  <defs>
    <linearGradient id="grad1_3" x1="43.8%" y1="0%" x2="100%" y2="100%">
      <stop offset="14.444444444444446%" stop-color="#1b1d23" stop-opacity="1"></stop>
      <stop offset="85.55555555555554%" stop-color="#141518" stop-opacity="1"></stop>
    </linearGradient>
  </defs>
  <defs>
    <linearGradient id="grad1_4" x1="43.8%" y1="0%" x2="100%" y2="100%">
      <stop offset="14.444444444444446%" stop-color="#0a0a0a" stop-opacity="1"></stop>
      <stop offset="85.55555555555554%" stop-color="#141518" stop-opacity="1"></stop>
    </linearGradient>
  </defs>
  <defs>
    <linearGradient id="grad2_0" x1="0%" y1="0%" x2="56.3%" y2="100%">
      <stop offset="14.444444444444446%" stop-color="#282e3a" stop-opacity="1"></stop>
      <stop offset="85.55555555555554%" stop-color="#282e3a" stop-opacity="1"></stop>
    </linearGradient>
  </defs>
  <defs>
    <linearGradient id="grad2_1" x1="0%" y1="0%" x2="56.3%" y2="100%">
      <stop offset="14.444444444444446%" stop-color="#21252e" stop-opacity="1"></stop>
      <stop offset="85.55555555555554%" stop-color="#282e3a" stop-opacity="1"></stop>
    </linearGradient>
  </defs>
  <defs>
    <linearGradient id="grad2_2" x1="0%" y1="0%" x2="56.3%" y2="100%">
      <stop offset="14.444444444444446%" stop-color="#21252e" stop-opacity="1"></stop>
      <stop offset="85.55555555555554%" stop-color="#1b1d23" stop-opacity="1"></stop>
    </linearGradient>
  </defs>
  <defs>
    <linearGradient id="grad2_3" x1="0%" y1="0%" x2="56.3%" y2="100%">
      <stop offset="14.444444444444446%" stop-color="#141518" stop-opacity="1"></stop>
      <stop offset="85.55555555555554%" stop-color="#1b1d23" stop-opacity="1"></stop>
    </linearGradient>
  </defs>
  <defs>
    <linearGradient id="grad2_4" x1="0%" y1="0%" x2="56.3%" y2="100%">
      <stop offset="14.444444444444446%" stop-color="#141518" stop-opacity="1"></stop>
      <stop offset="85.55555555555554%" stop-color="#0a0a0a" stop-opacity="1"></stop>
    </linearGradient>
  </defs>
  <g transform="translate(1920, 0)">
    <path d="M0 702C-88.9 683.1 -177.8 664.3 -261.8 631.9C-345.7 599.6 -424.7 553.7 -492.1 492.1C-559.6 430.6 -615.5 353.3 -648.6 268.6C-681.6 184 -691.8 92 -702 0L0 0Z" fill="#0f1012"></path>
    <path d="M0 561.6C-71.1 546.5 -142.2 531.4 -209.4 505.5C-276.6 479.7 -339.8 443 -393.7 393.7C-447.7 344.5 -492.4 282.6 -518.9 214.9C-545.3 147.2 -553.4 73.6 -561.6 0L0 0Z" fill="#17191d"></path>
    <path d="M0 421.2C-53.3 409.9 -106.7 398.6 -157.1 379.2C-207.4 359.7 -254.8 332.2 -295.3 295.3C-335.8 258.3 -369.3 212 -389.1 161.2C-409 110.4 -415.1 55.2 -421.2 0L0 0Z" fill="#1e2128"></path>
    <path d="M0 280.8C-35.6 273.3 -71.1 265.7 -104.7 252.8C-138.3 239.8 -169.9 221.5 -196.9 196.9C-223.8 172.2 -246.2 141.3 -259.4 107.5C-272.6 73.6 -276.7 36.8 -280.8 0L0 0Z" fill="#252a34"></path>
    <path d="M0 140.4C-17.8 136.6 -35.6 132.9 -52.4 126.4C-69.1 119.9 -84.9 110.7 -98.4 98.4C-111.9 86.1 -123.1 70.7 -129.7 53.7C-136.3 36.8 -138.4 18.4 -140.4 0L0 0Z" fill="#282e3a"></path>
  </g>
  <g transform="translate(0, 1080)">
    <path d="M0 -702C90.5 -683.6 181 -665.2 260.2 -628.2C339.4 -591.3 407.3 -535.8 475.2 -475.2C543 -414.5 610.8 -348.7 648.6 -268.6C686.4 -188.6 694.2 -94.3 702 0L0 0Z" fill="#0f1012"></path>
    <path d="M0 -561.6C72.4 -546.9 144.8 -532.1 208.2 -502.6C271.5 -473 325.9 -428.7 380.1 -380.1C434.4 -331.6 488.6 -279 518.9 -214.9C549.1 -150.9 555.3 -75.4 561.6 0L0 0Z" fill="#17191d"></path>
    <path d="M0 -421.2C54.3 -410.2 108.6 -399.1 156.1 -376.9C203.7 -354.8 244.4 -321.5 285.1 -285.1C325.8 -248.7 366.5 -209.2 389.1 -161.2C411.8 -113.2 416.5 -56.6 421.2 0L0 0Z" fill="#1e2128"></path>
    <path d="M0 -280.8C36.2 -273.4 72.4 -266.1 104.1 -251.3C135.8 -236.5 162.9 -214.3 190.1 -190.1C217.2 -165.8 244.3 -139.5 259.4 -107.5C274.5 -75.4 277.7 -37.7 280.8 0L0 0Z" fill="#252a34"></path>
    <path d="M0 -140.4C18.1 -136.7 36.2 -133 52 -125.6C67.9 -118.3 81.5 -107.2 95 -95C108.6 -82.9 122.2 -69.7 129.7 -53.7C137.3 -37.7 138.8 -18.9 140.4 0L0 0Z" fill="#282e3a"></path>
  </g>
</svg>