<svg width="702" height="702" viewBox="0 0 702 702" fill="none" xmlns="http://www.w3.org/2000/svg">
<path d="M0 0C90.5 18.4 181 36.8 260.2 73.8C339.4 110.7 413.6 161.9 481.5 222.5C549.3 283.2 614.2 351 652 431C689.8 511 702 607.5 702 702H0V0Z" fill="#0F1012"/>
<path d="M0 140.4C72.4 155.1 144.8 169.9 208.2 199.4C271.5 229 332.3 267.9 386.5 316.5C440.8 365 493.2 418.4 523.5 482.5C553.7 546.5 561.6 627 561.6 702H0V140.4Z" fill="#17191D"/>
<path d="M0 280.8C54.3 291.8 108.6 302.9 156.1 325.1C203.7 347.2 248.3 374.6 289 411C329.7 447.4 370.4 489.5 393 537.5C415.7 585.5 421.2 645.5 421.2 702H0V280.8Z" fill="#1E2128"/>
<path d="M0 421.2C36.2 428.6 72.4 435.9 104.1 450.7C135.8 465.5 167.3 483.8 194.5 508C223.9 530.6 246.4 561 261.5 593C276.6 625.1 280.8 665 280.8 702H0V421.2Z" fill="#252A34"/>
<path d="M0 561.6C18.1 565.3 36.2 569 52 576.4C67.9 583.7 84 592.3 97.5 604.5C111.1 616.6 124 631.5 131.5 647.5C139.1 663.5 140.4 681.5 140.4 702H0V561.6Z" fill="#282E3A"/>
</svg>
