<svg width="702" height="702" viewBox="0 0 702 702" fill="none" xmlns="http://www.w3.org/2000/svg">
<path d="M702 702C613.1 683.1 524.2 664.3 440.2 631.9C356.3 599.6 276.4 556.6 209 495C141.5 433.5 84.1 357.7 51 273C18 188.4 0 92.5 0 0H702V702Z" fill="#0F1012"/>
<path d="M702 561.6C630.9 546.5 559.8 531.4 492.6 505.5C425.4 479.7 361.4 448.8 307.5 399.5C250.7 353.3 205 286.2 178.5 218.5C149.9 154.1 140.4 73.5 140.4 0H702V561.6Z" fill="#17191D"/>
<path d="M702 421.2C648.7 409.9 595.3 398.6 544.9 379.2C494.6 359.7 443.5 338.4 403 301.5C361.3 269.7 327.3 214.3 307.5 163.5C287.6 112.7 280.8 54.5 280.8 0H702V421.2Z" fill="#1E2128"/>
<path d="M702 280.8C666.4 273.3 630.9 265.7 597.3 252.8C563.7 239.8 532 226.1 505 201.5C478.1 176.8 453.7 144.3 440.5 110.5C427.3 76.6 421.2 39 421.2 0H702V280.8Z" fill="#252A34"/>
<path d="M702 140.4C684.2 136.6 666.8 136.5 650 130C633.3 123.5 615 114.3 601.5 102C588 89.7 576.6 73 570 56C563.4 39.1 561.6 21 561.6 0H702V140.4Z" fill="#282E3A"/>
</svg>
